<svg width="22" height="22" viewBox="0 0 22 22" fill="none" xmlns="http://www.w3.org/2000/svg">
<path d="M4.125 6.875C3.7455 6.875 3.4375 6.567 3.4375 6.1875C3.4375 4.67122 4.67122 3.4375 6.1875 3.4375C6.567 3.4375 6.875 3.7455 6.875 4.125C6.875 4.5045 6.567 4.8125 6.1875 4.8125C5.42919 4.8125 4.8125 5.42919 4.8125 6.1875C4.8125 6.567 4.5045 6.875 4.125 6.875Z" fill="#3A3A3A"/>
<path d="M9.625 4.8125H6.1875C5.808 4.8125 5.5 4.5045 5.5 4.125C5.5 3.7455 5.808 3.4375 6.1875 3.4375H9.625C10.0045 3.4375 10.3125 3.7455 10.3125 4.125C10.3125 4.5045 10.0045 4.8125 9.625 4.8125Z" fill="#3A3A3A"/>
<path d="M4.125 16.5C3.7455 16.5 3.4375 16.192 3.4375 15.8125V6.1875C3.4375 5.808 3.7455 5.5 4.125 5.5C4.5045 5.5 4.8125 5.808 4.8125 6.1875V15.8125C4.8125 16.192 4.5045 16.5 4.125 16.5Z" fill="#3A3A3A"/>
<path d="M6.1875 18.5625C4.67122 18.5625 3.4375 17.3288 3.4375 15.8125C3.4375 15.433 3.7455 15.125 4.125 15.125C4.5045 15.125 4.8125 15.433 4.8125 15.8125C4.8125 16.5708 5.42919 17.1875 6.1875 17.1875C6.567 17.1875 6.875 17.4955 6.875 17.875C6.875 18.2545 6.567 18.5625 6.1875 18.5625Z" fill="#3A3A3A"/>
<path d="M9.625 18.5625H6.1875C5.808 18.5625 5.5 18.2545 5.5 17.875C5.5 17.4955 5.808 17.1875 6.1875 17.1875H9.625C10.0045 17.1875 10.3125 17.4955 10.3125 17.875C10.3125 18.2545 10.0045 18.5625 9.625 18.5625Z" fill="#3A3A3A"/>
<path d="M14.4374 15.125C14.2614 15.125 14.0854 15.058 13.9514 14.9236C13.6829 14.6551 13.6829 14.2199 13.9514 13.9514L17.3889 10.5139C17.657 10.2455 18.0929 10.2455 18.361 10.5139C18.6294 10.7824 18.6294 11.2176 18.361 11.4861L14.9235 14.9236C14.7894 15.058 14.6134 15.125 14.4374 15.125Z" fill="#3A3A3A"/>
<path d="M17.8749 11.6875C17.6989 11.6875 17.5229 11.6205 17.3889 11.4861L13.9514 8.04856C13.6829 7.78009 13.6829 7.3449 13.9514 7.07644C14.2195 6.80797 14.6554 6.80797 14.9235 7.07644L18.361 10.5139C18.6294 10.7824 18.6294 11.2176 18.361 11.4861C18.2269 11.6205 18.0509 11.6875 17.8749 11.6875Z" fill="#3A3A3A"/>
<path d="M17.875 11.6875H8.25C7.8705 11.6875 7.5625 11.3795 7.5625 11C7.5625 10.6205 7.8705 10.3125 8.25 10.3125H17.875C18.2545 10.3125 18.5625 10.6205 18.5625 11C18.5625 11.3795 18.2545 11.6875 17.875 11.6875Z" fill="#3A3A3A"/>
</svg>
