<svg width="20" height="20" viewBox="0 0 20 20" fill="none" xmlns="http://www.w3.org/2000/svg">
<path d="M2.5 9.375H7.5C7.99711 9.37444 8.47369 9.17671 8.8252 8.8252C9.17671 8.47369 9.37444 7.99711 9.375 7.5V2.5C9.37444 2.00289 9.17671 1.5263 8.8252 1.1748C8.47369 0.823287 7.99711 0.625562 7.5 0.625H2.5C2.00289 0.625562 1.5263 0.823287 1.1748 1.1748C0.823287 1.5263 0.625562 2.00289 0.625 2.5V7.5C0.625562 7.99711 0.823287 8.47369 1.1748 8.8252C1.5263 9.17671 2.00289 9.37444 2.5 9.375ZM1.875 2.5C1.875 2.33424 1.94085 2.17527 2.05806 2.05806C2.17527 1.94085 2.33424 1.875 2.5 1.875H7.5C7.66576 1.875 7.82473 1.94085 7.94194 2.05806C8.05915 2.17527 8.125 2.33424 8.125 2.5V7.5C8.125 7.66576 8.05915 7.82473 7.94194 7.94194C7.82473 8.05915 7.66576 8.125 7.5 8.125H2.5C2.33424 8.125 2.17527 8.05915 2.05806 7.94194C1.94085 7.82473 1.875 7.66576 1.875 7.5V2.5Z" fill="#3A3A3A"/>
<path d="M2.5 19.375H7.5C7.99711 19.3744 8.47369 19.1767 8.8252 18.8252C9.17671 18.4737 9.37444 17.9971 9.375 17.5V12.5C9.37444 12.0029 9.17671 11.5263 8.8252 11.1748C8.47369 10.8233 7.99711 10.6256 7.5 10.625H2.5C2.00289 10.6256 1.5263 10.8233 1.1748 11.1748C0.823287 11.5263 0.625562 12.0029 0.625 12.5V17.5C0.625562 17.9971 0.823287 18.4737 1.1748 18.8252C1.5263 19.1767 2.00289 19.3744 2.5 19.375ZM1.875 12.5C1.875 12.3342 1.94085 12.1753 2.05806 12.0581C2.17527 11.9408 2.33424 11.875 2.5 11.875H7.5C7.66576 11.875 7.82473 11.9408 7.94194 12.0581C8.05915 12.1753 8.125 12.3342 8.125 12.5V17.5C8.125 17.6658 8.05915 17.8247 7.94194 17.9419C7.82473 18.0592 7.66576 18.125 7.5 18.125H2.5C2.33424 18.125 2.17527 18.0592 2.05806 17.9419C1.94085 17.8247 1.875 17.6658 1.875 17.5V12.5Z" fill="#3A3A3A"/>
<path d="M17.5 0.625H12.5C12.0029 0.625562 11.5263 0.823287 11.1748 1.1748C10.8233 1.5263 10.6256 2.00289 10.625 2.5V7.5C10.6256 7.99711 10.8233 8.47369 11.1748 8.8252C11.5263 9.17671 12.0029 9.37444 12.5 9.375H17.5C17.9971 9.37444 18.4737 9.17671 18.8252 8.8252C19.1767 8.47369 19.3744 7.99711 19.375 7.5V2.5C19.3744 2.00289 19.1767 1.5263 18.8252 1.1748C18.4737 0.823287 17.9971 0.625562 17.5 0.625ZM18.125 7.5C18.125 7.66576 18.0592 7.82473 17.9419 7.94194C17.8247 8.05915 17.6658 8.125 17.5 8.125H12.5C12.3342 8.125 12.1753 8.05915 12.0581 7.94194C11.9408 7.82473 11.875 7.66576 11.875 7.5V2.5C11.875 2.33424 11.9408 2.17527 12.0581 2.05806C12.1753 1.94085 12.3342 1.875 12.5 1.875H17.5C17.6658 1.875 17.8247 1.94085 17.9419 2.05806C18.0592 2.17527 18.125 2.33424 18.125 2.5V7.5Z" fill="#3A3A3A"/>
<path d="M15 10.625C14.1347 10.625 13.2888 10.8816 12.5694 11.3623C11.8499 11.8431 11.2892 12.5263 10.958 13.3258C10.6269 14.1252 10.5403 15.0049 10.7091 15.8535C10.8779 16.7022 11.2946 17.4817 11.9064 18.0936C12.5183 18.7054 13.2978 19.1221 14.1465 19.2909C14.9951 19.4597 15.8748 19.3731 16.6742 19.042C17.4737 18.7108 18.157 18.1501 18.6377 17.4306C19.1184 16.7112 19.375 15.8653 19.375 15C19.3736 13.8401 18.9122 12.7281 18.0921 11.9079C17.2719 11.0878 16.1599 10.6264 15 10.625ZM15 18.125C14.3819 18.125 13.7777 17.9417 13.2638 17.5983C12.7499 17.255 12.3494 16.7669 12.1129 16.1959C11.8764 15.6249 11.8145 14.9965 11.935 14.3903C12.0556 13.7842 12.3533 13.2273 12.7903 12.7903C13.2273 12.3533 13.7842 12.0556 14.3903 11.935C14.9965 11.8145 15.6249 11.8764 16.1959 12.1129C16.7669 12.3494 17.255 12.7499 17.5983 13.2638C17.9417 13.7777 18.125 14.3819 18.125 15C18.124 15.8285 17.7945 16.6228 17.2086 17.2086C16.6228 17.7944 15.8285 18.124 15 18.125Z" fill="#3A3A3A"/>
</svg>
